<?xml version="1.0" encoding="UTF-8" standalone="no"?>
<!-- Created with Inkscape (http://www.inkscape.org/) -->

<svg
   xmlns:dc="http://purl.org/dc/elements/1.1/"
   xmlns:cc="http://creativecommons.org/ns#"
   xmlns:rdf="http://www.w3.org/1999/02/22-rdf-syntax-ns#"
   xmlns:svg="http://www.w3.org/2000/svg"
   xmlns="http://www.w3.org/2000/svg"
   xmlns:sodipodi="http://sodipodi.sourceforge.net/DTD/sodipodi-0.dtd"
   xmlns:inkscape="http://www.inkscape.org/namespaces/inkscape"
   width="212.72784"
   height="57.439384"
   id="svg10815"
   version="1.1"
   inkscape:version="0.91 r13725"
   viewBox="0 0 212.72784 57.439384"
   sodipodi:docname="logo.svg">
  <defs
     id="defs10817" />
  <sodipodi:namedview
     id="base"
     pagecolor="#ffffff"
     bordercolor="#666666"
     borderopacity="1.0"
     inkscape:pageopacity="0.0"
     inkscape:pageshadow="2"
     inkscape:zoom="1.979899"
     inkscape:cx="108.76659"
     inkscape:cy="45.893223"
     inkscape:document-units="px"
     inkscape:current-layer="layer1"
     showgrid="false"
     fit-margin-top="0.5"
     fit-margin-left="0.5"
     fit-margin-right="0.5"
     fit-margin-bottom="0.5"
     inkscape:window-width="1366"
     inkscape:window-height="709"
     inkscape:window-x="0"
     inkscape:window-y="22"
     inkscape:window-maximized="1" />
  <metadata
     id="metadata10820">
    <rdf:RDF>
      <cc:Work
         rdf:about="">
        <dc:format>image/svg+xml</dc:format>
        <dc:type
           rdf:resource="http://purl.org/dc/dcmitype/StillImage" />
        <dc:title></dc:title>
      </cc:Work>
    </rdf:RDF>
  </metadata>
  <g
     inkscape:label="Calque 1"
     inkscape:groupmode="layer"
     id="layer1"
     transform="translate(37.618069,-22.480284)">
    <g
       transform="matrix(0.88866293,0,0,0.88866293,-1335.2048,203.33054)"
       id="g5911">
      <path
         sodipodi:nodetypes="ssssssscccccccscccsssssccsccccccccscccccscscsssscssccssssscccccssssccsscccccssccccccscscccsccscsccssccsccscccccssscsssssc"
         inkscape:connector-curvature="0"
         id="path5913"
         d="m 1620.1228,-197.73908 c -1.718,-0.0417 -3.4769,0.57045 -4.8848,1.98492 -2.1515,2.16146 -2.634,5.20846 -1.2577,7.94182 0.8174,1.62348 2.5928,3.03096 4.4024,3.49073 1.0073,0.2559 2.8734,0.15676 3.8587,-0.20534 2.9442,-1.0821 4.7496,-3.80456 4.5462,-6.85578 -0.2542,-3.81396 -3.3851,-6.27676 -6.6648,-6.35635 z m -49.0044,2.68807 -0.2631,0.26256 -0.2625,0.26256 -0.029,26.82478 -0.03,26.82478 0.338,0.33796 0.3379,0.33796 4.3998,0 c 4.4943,0 4.7131,-0.0194 5.0446,-0.45133 0.078,-0.10111 0.1419,-0.53306 0.1439,-0.96517 0,-0.9224 0.1815,-1.08894 0.6743,-0.63419 2.3684,2.18555 7.5452,3.2449 12.5105,2.55976 5.9983,-0.82767 11.3722,-4.75149 14.0458,-10.25616 2.9537,-6.08126 2.9417,-14.0915 -0.029,-20.07167 -1.2642,-2.54461 -3.8079,-5.45936 -6.082,-6.96861 -3.4532,-2.29178 -7.2585,-3.35709 -11.462,-3.20892 -3.5633,0.12561 -6.2882,0.96944 -8.491,2.62927 -0.511,0.38499 -0.9812,0.66743 -1.0454,0.62778 -0.077,-0.0476 -0.1171,-3.03014 -0.1171,-8.76799 l 0,-8.69634 -0.2781,-0.3235 -0.2786,-0.32353 -4.5633,0 z m 60.6883,0 -0.2979,0.27967 -0.2978,0.27967 0,26.83494 c 0,21.29498 0.03,26.8728 0.1443,27.01624 0.3301,0.41379 0.555,0.43331 5.0848,0.43687 l 4.4784,0.003 0.3374,-0.33689 0.3374,-0.33741 0,-8.43805 c 0,-7.574 0.018,-8.43463 0.1791,-8.40118 0.099,0.0205 2.5295,3.84998 5.4014,8.50973 3.0177,4.89641 5.3553,8.57218 5.5387,8.70915 0.3077,0.22982 0.4772,0.2383 5.6286,0.27058 5.8056,0.0364 5.8611,0.0302 5.8611,-0.6128 0,-0.18073 -0.9188,-1.65023 -2.5046,-4.00566 -1.3776,-2.04625 -4.2868,-6.36785 -6.4654,-9.60324 -2.212,-3.28484 -3.9406,-5.96172 -3.9143,-6.06225 0.026,-0.099 2.658,-4.06852 5.8489,-8.82092 3.1909,-4.75242 5.9011,-8.86633 6.0232,-9.1423 0.2055,-0.4645 0.2086,-0.52306 0.038,-0.7834 l -0.1845,-0.28071 -4.6746,0 c -5.1484,0 -5.0806,-0.009 -5.6227,0.72082 -0.1533,0.20626 -2.6523,4.25487 -5.5537,8.99736 -2.951,4.82344 -5.3466,8.62307 -5.4372,8.62307 -0.1384,0 -0.162,-2.42374 -0.162,-16.60498 l 0,-16.60448 -0.2786,-0.32351 -0.2786,-0.32352 -4.6147,0 z m 49.9064,14.84202 c -1.683,-0.0356 -3.4846,0.11679 -4.8987,0.44541 -7.2014,1.67353 -12.5886,7.52253 -14.1655,15.37995 -0.737,3.67224 -0.6382,7.366 0.2919,10.89141 2.1396,8.10966 8.618,13.48721 16.8344,13.97358 0.7931,0.047 1.6494,0.0698 1.9031,0.0513 0.2538,-0.0183 0.981,-0.0626 1.6155,-0.0984 4.3835,-0.24739 8.9718,-2.23158 11.9127,-5.1516 1.1351,-1.12703 1.6768,-1.81148 2.4469,-3.09287 0.6593,-1.09693 0.8006,-1.61162 0.5487,-1.99617 -0.1398,-0.21325 -5.3862,-3.64456 -6.2783,-4.10619 -0.1386,-0.0717 -0.4498,-0.13067 -0.692,-0.131 -0.4029,0 -0.5082,0.075 -1.2475,0.89406 -2.0821,2.3067 -3.4349,3.37122 -5.165,4.06397 -4.1549,1.66372 -8.8421,0.068 -11.0994,-3.77841 -0.6341,-1.0806 -1.2156,-2.83414 -1.2972,-3.91369 l -0.064,-0.84115 12.7924,-0.0118 c 7.0357,-0.006 12.917,-0.046 13.0699,-0.0888 0.1529,-0.0428 0.3866,-0.2236 0.5192,-0.40158 0.2249,-0.30185 0.2407,-0.46467 0.231,-2.41966 -0.012,-2.47461 -0.164,-3.75433 -0.6849,-5.78741 -1.8459,-7.20425 -6.9899,-12.28499 -13.7817,-13.61158 -0.8147,-0.15912 -1.782,-0.24813 -2.7918,-0.26948 z m -66.3805,0.67323 -0.2796,0.2973 -0.2797,0.29785 -0.03,18.86051 c -0.033,20.52603 -0.065,19.42827 0.5839,19.74173 0.3349,0.1618 8.8287,0.18332 9.2493,0.0235 0.6693,-0.25448 0.6363,0.76421 0.6363,-19.6706 0,-20.00402 0.019,-19.2699 -0.5246,-19.47865 -0.1027,-0.0394 -2.2493,-0.0717 -4.7709,-0.0717 z m 66.0757,7.3841 c 1.2488,0.0311 2.5355,0.27433 3.5004,0.69727 1.5473,0.67832 3.1947,2.15182 4.0778,3.64686 0.5162,0.87383 1.0491,2.34905 1.0877,3.01054 l 0.025,0.42995 -8.7883,0.0294 c -5.7198,0.0192 -8.8128,-0.0101 -8.8588,-0.0845 l 0,0 c -0.1379,-0.2231 0.3146,-1.6917 0.8876,-2.88167 0.5111,-1.06153 0.7079,-1.33406 1.6384,-2.26459 0.9301,-0.93009 1.2036,-1.1276 2.2646,-1.63894 0.6636,-0.31981 1.5802,-0.66343 2.0368,-0.76361 0.6445,-0.1414 1.38,-0.19939 2.1293,-0.18072 z m -91.053,1.37693 c 0.6021,0.003 1.1816,0.0579 1.6695,0.17325 3.0039,0.71003 5.6701,3.16216 6.9028,6.34778 1.072,2.77011 1.072,6.23214 0,9.00221 -1.2196,3.15168 -3.8796,5.61774 -6.829,6.33174 -1.0419,0.25224 -2.9341,0.23156 -3.972,-0.0433 -3.4581,-0.9158 -6.1295,-3.78745 -7.1815,-7.71938 -0.2637,-0.98583 -0.2967,-1.32809 -0.2967,-3.07041 0,-1.7423 0.033,-2.08464 0.2967,-3.07044 0.975,-3.64427 3.3881,-6.42628 6.5243,-7.52045 0.8151,-0.28438 1.8825,-0.43372 2.8859,-0.43099 z"
         style="fill:#e6f4fa" />
      <path
         inkscape:connector-curvature="0"
         id="path5915"
         d="m 1528.6003,-202.94415 c -2.6977,-0.023 -5.4037,0.22256 -7.9557,0.73792 -9.5009,1.91864 -18.1911,7.41502 -24.0308,15.19865 -0.4637,0.61809 -0.8106,1.17608 -0.7711,1.24004 0.046,0.0751 1.6747,0.11482 4.5928,0.11231 l 4.5206,-0.004 1.3844,-1.27213 0,0 c 5.4082,-4.96863 11.4109,-7.78297 18.4568,-8.65409 1.491,-0.18434 5.571,-0.18552 6.9788,-0.003 7.3259,0.95454 13.3524,3.84396 18.8765,9.05086 l 0.939,0.885 4.5693,0 c 3.614,0 4.5687,-0.0308 4.5687,-0.14653 0,-0.17804 -1.3526,-1.99445 -2.425,-3.2565 -1.173,-1.38055 -3.9247,-4.03821 -5.3612,-5.1778 -4.8328,-3.83413 -10.4441,-6.51024 -16.4376,-7.83915 -2.5184,-0.55841 -5.2078,-0.8498 -7.9055,-0.87269 z"
         style="fill:#e61b24" />
      <path
         sodipodi:nodetypes="cccscscccscccccccccsccccccccccccccscccscscsccccscssssssssscccccscccccccccccccc"
         inkscape:connector-curvature="0"
         style="fill:#ffffff;fill-opacity:1"
         d="m 1530.0505,-191.70413 c -0.061,-0.0376 -1.826,0.84793 -3.9222,1.96781 l -3.8111,2.03626 0,3.96182 c 0,3.79917 -0.01,3.96711 -0.2235,4.08163 -0.1383,0.074 -1.4317,0.11923 -3.403,0.11923 l -3.1795,0 0,3.63403 0,3.6335 3.2736,0 c 2.5648,0 3.3006,0.033 3.3993,0.15187 0.089,0.10691 0.1366,3.74394 0.162,12.31379 l 0.036,12.16246 0.2599,0.97535 c 0.8281,3.10959 2.7559,5.44993 5.3275,6.46756 1.2318,0.48741 1.8908,0.57187 4.095,0.52618 1.8071,-0.0375 2.2172,-0.0824 3.1603,-0.34598 l 0,0.003 c 1.3635,-0.38116 2.9354,-1.11129 3.1619,-1.46838 0.1881,-0.29675 1.964,-7.13597 1.8758,-7.22421 -0.03,-0.0298 -0.6929,0.2634 -1.4732,0.65185 -1.8944,0.94304 -3.1512,1.29808 -4.6484,1.31327 -0.8222,0.008 -1.3272,-0.0465 -1.7577,-0.19142 -0.8099,-0.27255 -1.5355,-0.98995 -1.8892,-1.8678 l -0.2749,-0.68287 0,-11.36197 0,-11.36248 4.0662,-0.0305 4.0661,-0.0299 0,-3.63243 0,-3.63189 -3.8357,-0.003 c -2.1095,0 -3.9522,-0.0329 -4.0949,-0.0711 l -0.2594,-0.0695 0,-5.97776 c 0,-3.69193 -0.042,-6.00451 -0.1107,-6.04676 z m -48.8573,11.53525 c -2.4358,0.003 -2.9348,0.0345 -4.1527,0.27378 -8.3298,1.63623 -14.0405,7.02827 -15.788,14.90723 -0.382,1.72261 -0.5348,3.19597 -0.5336,5.14409 0,5.70552 1.8077,10.5801 5.2596,14.21049 3.4244,3.60141 7.9519,5.64656 13.6576,6.16919 0.9715,0.089 3.8662,-0.0397 4.9051,-0.21815 3.7268,-0.64016 6.8062,-2.28838 9.6535,-5.16764 0.6212,-0.6282 1.1285,-1.22767 1.1272,-1.33204 0,-0.18538 -4.1852,-5.34174 -4.3966,-5.42001 -0.059,-0.0219 -0.4669,0.29982 -0.9069,0.71493 -1.1303,1.06624 -2.2811,1.85285 -3.7495,2.56296 -1.9911,0.96278 -2.8288,1.14553 -5.2484,1.14326 -1.7395,-0.003 -2.1604,-0.0393 -3.0416,-0.27058 -2.1236,-0.55748 -3.7401,-1.43785 -5.258,-2.86349 -2.7323,-2.56641 -4.0859,-6.12194 -3.8955,-10.23155 0.2261,-4.88025 2.6537,-8.79444 6.7157,-10.82776 2.3517,-1.17724 5.7327,-1.54485 8.3209,-0.90529 2.0359,0.50307 4.376,1.8054 6.1168,3.40462 0.4544,0.41738 0.8748,0.75879 0.9342,0.75879 0.1719,0 4.411,-5.18577 4.411,-5.39598 0,-0.10431 -0.6356,-0.81639 -1.4128,-1.58227 -2.6675,-2.62864 -5.3243,-4.06868 -8.969,-4.86232 -0.8034,-0.17495 -1.4806,-0.21358 -3.749,-0.21226 z m 19.0338,0.57535 -0.03,19.55244 c -0.016,10.75387 0,19.61752 0.025,19.69683 0.042,0.11146 0.9464,0.14385 3.9811,0.14385 l 3.926,0 -0.029,-19.69683 -0.029,-19.69629 -3.9223,0 z m 46.6028,0 -0.029,19.69629 -0.029,19.69683 3.98,0 3.9805,0 -0.029,-19.69683 -0.029,-19.69629 -3.9222,0 z"
         id="path5917" />
    </g>
  </g>
</svg>
